<?xml version="1.0" encoding="UTF-8"?>
<svg version="1.0" viewBox="0 0 750 500" xmlns="http://www.w3.org/2000/svg">
 <rect y="3.5527e-14" width="750" height="500" fill="#009530" fill-rule="evenodd"/>
 <path d="m189 141.73c-0.86581 11.681-1.905 32.237 8.0202 34.345 12.005 1.1541 5.3854-20.318 9.7306-24.212 0.82147-1.9242 2.3364-1.9342 2.4614 0.49288v18.213c-0.10986 5.9226 3.7838 7.6674 6.8086 8.891 3.1478-0.24292 5.2493-0.13809 6.483 2.925 0.49188 10.502 0.98476 21.003 1.4766 31.505 0 0 7.3005 2.0894 7.6482-17.721 0.34875-11.632-2.3233-21.368-0.75696-23.631 0.05544-2.2235 2.8948-2.3566 4.8643-1.273 3.1377 2.2134 4.5357 4.947 9.4121 3.8533 7.4204-2.0441 11.881-5.6535 11.99-11.351-0.43341-5.4146-1.0402-10.83-3.3867-16.245 0.32758-0.98476-1.4323-3.5358-1.1057-4.5206 1.3335 2.0884 3.3625 1.9151 3.8241 0-1.263-4.1618-3.2224-8.1492-6.3994-9.8748-2.6257-2.3132-6.4679-1.8405-7.875 2.9835-0.65214 5.5588 2.0038 12.163 6.0516 17.547 0.85977 2.1036 2.0673 5.5991 1.5361 8.7469-2.154 1.2287-4.3079 0.71664-6.1121-1.1884 0 0-5.9065-4.4299-5.9065-5.4146 1.5673-10.035 0.34774-11.173-0.5211-13.958-0.60678-3.8443-2.4312-5.077-3.9088-7.7026-1.4776-1.5663-3.4764-1.5663-4.4319 0-2.6106 4.5256-1.393 14.241 0.49288 18.592 1.3627 4.0025 3.4451 6.5143 2.4614 6.5143-0.81038 2.2618-2.4856 1.7397-3.7042-0.87085-1.7397-5.3955-2.0884-13.446-2.0884-17.071-0.52211-4.4944-1.0956-14.081-4.0539-16.517-1.8042-2.4574-4.4793-1.2589-5.4136 0.98375-0.19454 4.4611-0.21469 8.9212 0.28726 13.033 2.029 7.2108 2.666 13.551 3.6507 20.935 0.27315 9.8909-5.719 4.2918-5.4449-0.61182 1.3819-6.3692 1.0231-16.394-0.20461-18.935-0.97367-2.541-2.1227-3.1679-4.4904-2.7496-1.8798-0.1149-6.7169 5.1667-8.0746 13.928 0 0-1.1581 4.5095-1.652 8.513-0.66423 4.5246-3.6427 7.7178-5.7311-0.63601-1.8052-6.0718-2.915-21.02-5.9378-17.519z" fill="#fff" fill-rule="evenodd"/>
 <path d="m221.63 189.65c-10.593 5.1788-20.839 10.01-31.26 15.014 0.381-7.0858 14.862-19.876 24.738-20.057 6.4276 0.17942 4.8129 2.4906 6.5224 5.0427z" fill="#fff" fill-rule="evenodd"/>
 <path d="m261.53 123.5c-0.59575 0.07528-1.2389 0.41916-2.0159 0.59846-2.5521 0.8124-4.9432 3.0137-4.1892 7.3075 3.0168 18.332 4.9837 32.315 8.0005 50.649 0.46366 2.1469-1.3335 4.9825-3.6538 4.6932-3.945-2.669-4.9222-8.0738-11.654-7.843-4.8734 0.05846-10.456 5.3501-11.15 10.457-0.81239 4.059-1.1017 8.4609 0 12.001 3.425 4.1184 7.553 3.7011 11.15 2.7718 2.9583-1.2176 5.3804-4.1603 6.4256-3.4648 0.00273 0.0034 0.02882-0.00367 0.0315 0 0.00264 0.00394-0.0026 0.02728 0 0.0315 0.64509 1.1276-0.07688 10.68-13.954 18.048-8.5281 3.8292-15.309 4.7265-18.962-2.2364-2.2628-4.3513 0.1847-20.902-5.3862-17.072-16.475 42.467 38.575 48.378 44.727 1.7324 0.39844-1.3159 1.6317-2.6231 2.4883-2.2994 0.3759 0.16008 0.69518 0.65192 0.81895 1.6064-1.2771 42.235-42.59 45.131-49.609 31.844-1.7397-3.1317-2.251-10.091-2.4253-14.269-0.31817-2.5275-0.96577-3.9901-1.7009-4.5672-1.6745-1.2582-3.9282 2.0213-4.4097 7.717-0.69648 4.5831-0.50397 5.8596-0.50397 10.268 2.2044 33.359 55.392 19.021 64.035-8.536 4.2787-14.246-0.07646-25.013 1.3544-26.332 0.01238-0.01039 0.04979-0.02245 0.063-0.0315 0.01363-0.00839 0.04851-0.02446 0.063-0.0315 0.01491-0.00637 0.04719-0.02647 0.06299-0.0315 0.04875-0.01304 0.13195-0.03075 0.18899-0.0315 5.2796 5.6868 12.675 0.74411 14.3-1.2284 0.69649-0.98676 2.4362-1.6225 3.6538-0.34648 4.1184 2.9603 11.344 1.5673 12.851-3.6538 0.87085-5.1052 1.5895-10.36 1.7639-15.812-2.6827 0.83292-4.8299 1.444-5.7011 2.3624-0.2075 0.22659-0.3642 0.48389-0.40948 0.75595-0.23284 1.5089-0.46012 3.0268-0.69295 4.5357-0.02486 0.12473-0.06596 0.24268-0.12599 0.34647-0.11435 0.18521-0.30733 0.35973-0.50397 0.47247-0.94843 0.51783-2.592 0.21254-2.6773-1.1654-1.276-5.8017-6.5418-6.5685-9.7329 2.4254-2.1469 1.7397-6.0499 2.0751-6.4571-0.53547 0.52212-6.0335-1.8997-6.8436-6.7721-4.0002-1.5663-11.951-3.1259-23.358-4.6932-35.309 2.031-0.05846 3.876 1.4383 5.7326-0.88194-2.0092-6.2487-6.2349-18.966-8.6305-20.159-0.01882-0.00871-0.0444-0.02424-0.063-0.0315-0.10876-0.1305-0.24017-0.25344-0.34647-0.34648-0.04423-0.03754-0.11354-0.09431-0.15749-0.12599-0.04392-0.03054-0.11375-0.06942-0.15749-0.09449-0.09618-0.05282-0.21892-0.09678-0.31498-0.12599-0.21841-0.06191-0.4358-0.09151-0.66146-0.063zm-14.836 65.579c1.0815-0.13297 2.3098 0.27852 2.9293 1.8269 0.48784 1.2428 0.01864 2.5362-0.56697 3.1813-0.00255 0.00502 0.0027 0.02659 0 0.0315-0.00851 0.0144-0.02172 0.04955-0.03149 0.063-0.4145 0.53404-1.8612 0.31498-2.8978 0.31498-1.2539-0.05544-1.8614-0.27139-2.6143-1.2914-0.35983-1.1339 0.71412-2.2412 1.1969-3.0868 0.00462-0.00787 0.02656-0.02361 0.0315-0.03149 0.05241-0.07879 0.13974-0.17525 0.22048-0.25199 0.375-0.34347 1.0371-0.67048 1.7324-0.75595z" fill="#fff" fill-rule="evenodd"/>
 <path d="m298.59 122.53c-1.4216 0.07245-2.6766 0.47991-3.75 1.0312-2.7265 2.6106-3.3657 6.7957-1.2188 9.4062 2.0895 0.98677 4.1742 3.0899 2.7812 4.25-5.9087 6.3111-21.287 16.857-22.062 18.781-0.00552 0.01569-0.02786 0.04806-0.03125 0.0625-0.00232 0.01381 1.5e-4 0.04997 0 0.0625 4.7e-4 0.00594-0.00103 0.02563 0 0.03125 0.00475 0.01589 0.02144 0.04958 0.03125 0.0625 0.00384 0.00397 0.02684 0.02761 0.03125 0.03125 0.00499 0.0033 0.02568-0.00296 0.03125 0 0.00616 0.00262 0.0245 0.02897 0.03125 0.03125 0.00734 0.00193 0.02332-0.00159 0.03125 0 0.00232 0.00223 0.02862 0.02904 0.03125 0.03125 0.78147 0.52416 10.404 0.51176 11.469 0.03125 0.00765-0.00405 0.02481-0.02713 0.03125-0.03125 0.00292-0.00207 0.02864 0.00209 0.03125 0 0.0023-0.00211-0.00199-0.02913 0-0.03125 3.307-1.2186 19-19.156 19-19.156-0.81342-0.69647-1.5626-1.2098-2.375-1.9062-0.87086-0.75393-0.78317-1.4951 0-2.25 3.8866-2.2618 2.655-7.2382 0.625-9.5-1.6828-0.75445-3.2659-1.01-4.6875-0.9375zm-0.75 5.5625c0.95979-0.09781 2.1195 0.78407 2.6875 2.0312 0.60588 1.3303 0.30199 2.6014-0.6875 2.8438-0.98948 0.24236-2.2691-0.63842-2.875-1.9688-0.60586-1.3303-0.30199-2.6326 0.6875-2.875 0.06184-0.01515 0.12351-0.02473 0.1875-0.03125z" fill="#fff" fill-rule="evenodd"/>
 <path d="m191.44 219.72c-5.8753 9.3597-6.3863 23.343-3.1448 27.512 1.7226 1.9695 4.5528 2.8323 6.6463 2.2154 3.6911-1.6006 5.3068-9.0795 4.4309-11.815-1.2317-1.9282-2.2023-2.2336-3.432-0.59368-2.5974 5.2735-3.6759 1.656-3.9037-1.2912-0.39813-5.589 0.12801-10.737 0.73479-14.813 0.64609-4.1779-0.01109-2.9008-1.3315-1.2146z" fill="#fff" fill-rule="evenodd"/>
 <path d="m442.5 204.73c-5.6807-12.227-13.545-24.31-16.047-28.952-2.5017-4.6436-21.391-32.057-24.172-35.141-6.1363-7.2924 9.9645 3.0369-2.037-11.441-4.576-3.9259-4.8421-4.1648-8.64-7.368-1.9161-1.3597-6.5939-3.8433-7.4224 0.27315-0.41628 3.6296-0.19151 5.5981 0.41829 8.6199 0.46768 2.0149 3.4028 5.3894 4.8462 7.3448 19.165 25.761 36.159 51.777 52.547 84.486 2.5874-1.2297 2.0219-15.776 0.508-17.822z" fill="#fff" fill-rule="evenodd"/>
 <path d="m417.57 245.64c-1.1168 1.2539 2.7577 6.6171 7.7934 6.6121 8.4213-0.9777 15.835-5.7079 22.699-18.16 1.8354-2.9039 5.0618-9.1148 5.1566-13.933 0.64206-28.247-1.4141-50.227-5.6465-70.643-0.27113-1.9886-0.10583-4.3261 0.23082-4.9228 0.54529-0.65112 2.3948 0.00303 3.3756-1.6056 1.4393-1.4696-3.8221-13.642-6.8217-18.331-1.0654-2.0935-1.4363-3.4915-3.1992 0.24594-1.8546 3.0379-3.1004 8.3386-2.9543 13.292 4.0176 27.814 5.2514 52.147 7.877 79.962 0.21369 2.6902-0.18142 6.599-1.9695 8.1572-6.6141 6.9064-16.16 15.407-26.541 19.327z" fill="#fff" fill-rule="evenodd"/>
 <path d="m531.33 245.5c-6.0436 3.4935-6.0506 7.5122-1.1642 7.6573 8.4213-0.9777 18.372-1.6772 25.236-12.04 1.8365-2.9039 4.0176-10.757 4.1124-15.575 0.64205-28.247-0.36891-55.875-4.6012-76.291-0.27114-1.9887-1.1511-6.5657-0.81442-7.1624 0.5453-1.398 3.2909 0.1522 4.2716-1.4565 1.4393-1.4696-7.107-12.448-10.107-17.137-1.0654-2.0935-1.4363-3.4915-3.1992 0.24593-1.8546 3.0379-2.5027 8.4878-1.7599 13.292 4.4652 30.203 7.7893 59.437 8.4747 86.207-0.38402 2.541-0.47978 3.9108-1.6712 7.112-2.6358 3.3786-5.5557 7.6029-8.2943 9.645-2.7376 2.0411-8.5786 3.9894-10.484 5.5023z" fill="#fff" fill-rule="evenodd"/>
 <path d="m535.86 218.42c-0.06955-7.0636 0.09979-13.163-0.13305-18.431-0.23182-5.2685-2.6407-25.046-3.451-29.316-0.80938-4.2696-1.6098-10.664-2.8334-15.731-0.33564-1.9786-1.3637-8.3155-1.0462-8.9233 0.49893-1.4141 2.3989 0.04435 3.3272-1.5946 1.3899-1.5149-4.821-17.585-7.9718-22.175-1.1329-2.0572-3.1901-1.3526-5.7271 1.9927-2.3525 2.2013-1.4796 7.2219-0.58157 11.998 6.0426 31.534 10.55 64.592 9.5663 94.61-0.30137 2.5521 8.9132-7.6129 8.8507-12.431z" fill="#fff" fill-rule="evenodd"/>
 <path d="m491.21 179.3c-3.8009-0.06955-11.762-7.3962-14.085-11.689-0.87792-2.4624-0.31448-4.8643 0.45962-6.2714 1.4071-0.91521 3.5721-1.9433 5.1909-0.95754 0 0 1.6782 2.3485 1.3537 2.6468 2.0753 0.99383 2.9563 0.42233 3.1669-0.42232 0.14112-1.4776-0.61383-2.3586-0.62189-3.9864 0.87993-4.4148 5.9257-5.1012 7.8256-2.286 1.391 1.7165 1.901 5.3632 2.1116 7.8256-0.02217 1.2579-2.0592-0.21772-3.2163 0.08466-1.1581 0.30339-1.4363 1.6389-1.526 2.8474-0.20965 3.2012-0.58863 8.3376-0.65919 12.208z" fill="#fff" fill-rule="evenodd"/>
 <path d="m421.07 226.25c1.0472-9.5976-0.38704-29.19-0.4828-34.854-0.38402-13.379-2.5692-39.221-3.6094-43.538-1.1722-8.1381 3.3474 0.89303 2.7214-3.8372-1.4655-8.127-5.973-13.635-11.272-21.079-1.7085-2.4211-1.651-2.915-4.2888 0.59367-2.919 6.6222-0.39915 11.177 0.35479 16.334 3.8211 16.802 6.0506 32.263 7.0888 47.546 1.0382 15.284 1.3567 34.308 0.40922 50.405 2.8636 0.11289 7.4678-4.6325 9.0785-11.571z" fill="#fff" fill-rule="evenodd"/>
 <path d="m548.79 210.88c-6.7018-11.246-16.815-24.424-19.518-28.953-2.7013-4.5297-25.553-38.042-28.465-41.001-8.3598-8.7822 3.8342-1.4292-1.6006-8.2127-4.5962-5.0467-5.9368-6.6312-9.8707-9.6661-1.9725-1.275-3.168-3.7092-3.816 0.43946-0.25803 3.6447-0.52715 7.8609-0.28222 10.933-0.01412 1.7074 1.7639 4.9157 3.2909 6.8066 20.269 24.902 42.376 55.357 60.173 87.322 2.5319-1.3416 1.6903-15.69 0.0887-17.668z" fill="#fff" fill-rule="evenodd"/>
 <path d="m467.62 343.59c-0.00776 0.0036-0.02338 0.02583-0.03125 0.03125-5.9277 1.521-5.7433 7.6749-1.9375 10.375-62.594 0-158.65-1.0625-179.25-1.0625-11.525 0-47.987-1.375-48.688-1.375 7.8196 11.437 19.147 13.766 33.969 14 27.802 0 156.62-0.34375 193.28-0.34375-2.6062 4.6275 0.23645 12.074 2.2812 13.438 0.04336 0.0279 0.11369 0.07148 0.15625 0.09375 0.07629 0.03803 0.17693 0.07486 0.25 0.09375 0.02422 0.00557 0.06995-0.00336 0.09375 0 2.4271 0.5725 3.4951-1.1846 4.3125-2.4688 3.9372 0.34703 26.097 0.66757 28.125-0.03125 0.00736-0.00278 0.02452-0.02843 0.03125-0.03125 1.3718 2.0189 2.7332 3.9264 5.3438 3.5938 4.569-0.97972 8.1674-1.477 8.2812-10.75 0 0-0.46704-15.802-10.844-14.812-2.4553 0.37092-9.3438 1.0625-9.3438 1.0625-7.9718-0.94847-13.819-1.0454-22.781-1.375 0.82723-1.0502 2.2878-5.3034 0.5-6.8438-0.46622-0.38767-1.1617-0.60352-2.125-0.53125-0.00693 5e-4 -0.0244-8e-5 -0.03125 0-0.01356-6.8e-4 -0.04924 0.0023-0.0625 0-0.00656-0.00155-0.02476-0.02931-0.03125-0.03125-0.02566-0.00928-0.0692-0.01612-0.09375-0.03125-0.04857-0.03304-0.11173-0.10294-0.15625-0.15625-0.01101-0.0139-0.05172-0.0475-0.0625-0.0625-0.45322-0.65987-0.70068-2.2777-1-2.6875-0.00354-0.00449-0.0277-0.0271-0.03125-0.03125-0.00358-0.00344-0.02765-0.02817-0.03125-0.03125-0.01092-0.00702-0.05139-0.02774-0.0625-0.03125-0.00375-3.6e-4 -0.02748-6e-5 -0.03125 0-0.00382 9.1e-4 -0.0274-0.00135-0.03125 0zm4.25 22.594c0.01089-0.00501 0.02021 0.00476 0.03125 0 9.1319 0.44551 17.712 0.08574 26.844 0.53125 1.4473 1.2303 0.72345 4.0484-0.21875 4.5625-0.04223 0.02112-0.11339 0.05097-0.15625 0.0625-0.03435 0.00763-0.09049-0.00101-0.125 0-0.03452-7e-4 -0.09054 0.00775-0.125 0-2.9694-0.0746-4.6869-0.14417-7.6562-0.21875-0.00517-0.14772-0.02153-0.30707-0.0625-0.4375-0.70371-2.0856-5.8008-1.9461-7-0.3125-0.0166 0.02354-0.04752 0.06961-0.0625 0.09375-0.01923 0.03246-0.04628 0.09148-0.0625 0.125-0.01931 0.04223-0.04815 0.11238-0.0625 0.15625-0.01866 0.06188-0.02292 0.15372-0.03125 0.21875-0.00778 0.07483-0.03793 0.17113-0.03125 0.25-4.0086 0.4818-7.6164-0.13309-11.625-0.28125-1.1761-1.4641-1.0388-4.1134 0.34375-4.75z" fill="#fff" fill-rule="evenodd"/>
 <path d="m309.22 132.11c-6.102 17.44 3.4955 36.518 10.15 34.66 4.8008 1.9876 7.8579-7.1453 9.8234-17.151 1.3446-2.8081 2.3606-3.1075 3.051-1.6641-0.1774 13.306 0.95552 16.253 4.3765 20.292 7.6311 5.8874 13.944 0.75192 14.439 0.25602l5.9418-5.9418c1.3224-1.391 3.0833-1.4726 4.951-0.24694 1.8153 1.65 1.5603 4.5004 5.4469 6.477 3.2708 1.3083 10.264 0.30238 11.884-2.5158 2.1802-3.7364 2.7033-5.0195 3.7132-6.4367 1.5562-2.0713 4.2091-1.1501 4.2091-0.49591-0.24795 1.1551-1.8052 2.3112-0.74285 4.3916 1.8506 1.3879 2.2779 0.4949 3.3726 0.18647 3.8715-1.8506 6.7784-10.272 6.7784-10.272 0.17135-3.1327-1.5845-2.8736-2.7234-2.2286-1.4857 0.90815-1.5825 1.1984-3.0682 2.1066-1.8929 0.28121-5.5648 1.5361-7.3801-1.275-1.8536-3.3796-1.8788-8.0947-3.296-11.504 0-0.24795-2.4594-5.3693-0.17034-5.6969 1.1551 0.21469 3.6195 0.86683 4.0116-1.2085 1.2115-2.0229-2.5944-7.751-5.1989-10.646-2.2608-2.4815-5.3935-2.7809-8.4173-0.24694-2.1177 1.9483-1.8133 4.1255-2.2286 6.1887-0.53925 2.3697-0.42434 5.2846 1.9806 8.4173 2.1136 4.1678 5.97 9.5351 4.704 17.083 0 0-2.2527 3.5671-6.1776 3.1004-1.6359-0.35681-4.2888-1.0513-5.7059-11.518-1.0724-7.9224 0.25299-19.007-3.1095-24.204-1.2146-3.1377-2.1016-6.1676-5.0608-0.80131-0.79526 2.1076-4.2081 5.3058-1.7326 11.884 2.0249 4.1708 2.8494 10.958 1.9302 18.51-1.403 2.1459-1.7145 2.8726-3.554 5.0185-2.5844 2.7789-5.3884 2.0693-7.5363 1.0321-2.0068-1.3526-3.5782-2.0522-4.4944-6.349 0.1653-6.8489 0.54731-18.06-0.70455-20.439-1.8455-3.684-4.8895-2.3515-6.1897-1.2388-6.2472 5.712-9.3335 15.35-11.219 23.024-1.7326 5.593-3.5762 3.9904-4.8724 1.7336-3.1558-2.9573-3.3695-26.083-7.1795-22.281z" fill="#fff" fill-rule="evenodd"/>
 <path d="m329.78 168.14c-0.05373 0.01973-0.10812 0.06637-0.15749 0.09449-0.02422 0.01475-0.07001 0.04543-0.0945 0.063-0.4022 0.30192-0.89216 0.98113-1.9529 1.7324-1.7891 2.035-2.0942 3.4489-1.9844 7.528 0.1018 0.43147 3.3826 9.5932 6.1736 16.032 1.8818 6.6927 3.6414 14.37 2.3624 21.608-4.4057 9.5684-13.279 18.142-21.828 22.805-4.3557 1.395-8.0954 0.91969-9.1029-0.0315-0.00765-0.00761-0.02419-0.02383-0.03149-0.0315-2.5014-1.6818-2.5779-4.6852-2.4254-5.1972-4e-5 -0.00287 1.7e-4 -0.02799 0-0.0315 0.00571-0.00578 0.02576-0.02609 0.0315-0.0315 7.2138-5.0246 15.471-9.0823 21.923-22.647 1.905-5.1838 2.4914-8.2998 0.59846-16.316-0.7379-2.9868-1.6786-5.4416-3.7168-7.5595 0.00528-0.00562 0.02615-0.02597 0.0315-0.03149 1.228-0.58751 4.4215 1.7619 4.9137 0.28348-0.75394-3.8271-3.333-8.9626-6.2681-11.591-2.5702-2.3344-5.3645-2.6083-7.717-0.47247-2.6499 1.4746-3.2289 6.7668-1.9529 11.402 1.4172 3.4895 5.2435 4.0955 7.969 11.119-6e-5 0.00697-2.4e-4 0.0291 0 0.0315 0.05684 0.44036 0.93189 5.268-0.44097 7.213-1.1141 3.4742-15.429 14.755-16.442 15.434-0.01119 0.01123-0.0521 0.05236-0.063 0.063-0.00562 0.00583-0.02615 0.02626-0.0315 0.03149-0.00254 0.00232-0.02486 0.02471-0.0315 0.0315-0.00274 0.00293-0.02864 0.02828-0.03149 0.0315-0.00286 0-0.02804 1.7e-4 -0.0315 0-0.0016-7e-5 -0.02439-1.1e-4 -0.0315 0-0.00571-0.00529-0.02599-0.02561-0.0315-0.0315 2.4e-4 -0.00343-7e-5 -0.02863 0-0.0315-0.0058-0.01076-0.02584-0.05164-0.0315-0.06299-0.04309-0.28175 0.03256-1.0162 0-2.1734-0.09397-2.1144 0.75535-6.8962 0.69296-7.717 3e-5 -0.0028-9e-5 -0.02833 0-0.0315-0.00583-0.00567-0.02564-0.02597-0.0315-0.03149 5e-5 -0.00288-1.6e-4 -0.02802 0-0.0315-0.00736 1.3e-4 -0.03043 9e-5 -0.0315 0-4.7302 3.054-6.2862 12.41-7.15 15.182-11.975 8.2742-25.555 14.453-33.388 22.836-4.0791 6.3702 28.105-7.3229 31.844-8.9769 0.03213 0.0241 0.0649 0.06373 0.0945 0.09449 0.71089 0.78237 0.76317 3.4947 2.8978 5.9531 3.3453 4.5317 10.436 7.3353 17.355 5.6066 11.603-4.194 18.298-12.11 25.104-20.883 0.97266-1.4151 2.4966-2.51 3.9058-1.4174 4.6768 10.47 18.16 17.911 35.593 18.678 4.0338-4.9056 2.1084-7.3209 0.47247-8.347-0.50391-0.33487-8.6542-3.5084-9.9219-6.6776-0.79829-2.9492 1.1196-5.5615 5.0082-7.528 11.193-1.3537 22.205-2.8756 32.852-6.2996 0.10785-3.5772 2.2122-8.9215 3.6223-11.245 0.97909-1.612 1.6232-1.7874 1.8584-2.0159 0.00762-0.00798 0.02486-0.02326 0.03149-0.0315 0.00307-0.00422 0.02868-0.02718 0.0315-0.0315 0.0058-0.00548 0.02582-0.02595 0.0315-0.0315 2e-5 -0.01074 4.2e-4 -0.05188 0-0.06299 0.00635-0.07076-7.4e-4 -0.16371-0.0315-0.28349l-1.8269-1.0709-35.719-0.15749c-0.44123-0.16987-0.777-0.34434-0.97644-0.50397-0.01516-0.01271-0.04943-0.0504-0.063-0.06299-0.00638-0.00626-0.02552-0.02527-0.0315-0.0315-0.00557-0.00619-0.02631-0.02534-0.03149-0.0315-0.00548-0.01089-0.02654-0.05214-0.0315-0.063-0.00287-0.0028-0.02793-0.02818-0.0315-0.03149 6e-5 -0.00281-2.9e-4 -0.02819 0-0.0315-0.0029-0.0028-0.0278-0.02817-0.0315-0.0315 3e-5 -0.0028-1.8e-4 -0.02817 0-0.0315 2e-5 -0.0028-1.3e-4 -0.02817 0-0.0315 1e-5 -0.0028-8e-5 -0.02816 0-0.03149-3.2e-4 -0.00481 1.2e-4 -0.0267 0-0.0315 1.4e-4 -0.00238 9e-5 -0.02482 0-0.0315-4e-5 -0.0028 1e-4 -0.02815 0-0.0315-5e-5 -0.0028 1.4e-4 -0.02815 0-0.0315-6e-5 -0.00281 1.9e-4 -0.02815 0-0.03149 0.00577-0.00562 0.02569-0.02589 0.0315-0.0315 0.00847-0.01648 0.02063-0.0467 0.0315-0.063 0.17439-0.23501 0.60595-0.46173 1.1339-0.66146 8.5292-1.1622 23.689-3.6331 24.694-18.206-0.15724-7.5908-3.2534-12.577-12.568-13.954-6.8439 0.52917-11.717 7.1692-10.93 14.458-0.32758 1.9624 0.6534 5.8002-1.3544 6.2366-13.128 1.1994-27.458 9.4207-27.939 15.308-0.00315-5.1e-4 -0.02874 1.4e-4 -0.0315 0-0.00548 0.00572-0.026 0.02585-0.0315 0.0315-0.01014 0.00485-0.04649 0.02339-0.063 0.0315-0.01086-1.5e-4 -0.05203 4e-4 -0.06299 0-0.02107 0.00683-0.073 0.02591-0.0945 0.0315-0.00576 5.4e-4 -0.02341-1.1e-4 -0.03149 0-0.01778-2.8e-4 -0.05115 0-0.063 0-0.00598-1.9e-4 -0.02343-2e-4 -0.0315 0-0.01318 3.3e-4 -0.05205 5.3e-4 -0.06299 0-0.03386-0.0068-0.09655-0.02408-0.126-0.0315-0.85383-0.23714-1.9365-1.6435-1.7639-3.6223-0.49994-10.177-3.8206-21.683-9.0084-30.553-1.8513-1.8508-2.6517-2.5906-3.1813-2.6773-0.01709-0.00216-0.04639 8e-4 -0.06299 0-0.02185-9e-5 -0.06639 2.5e-4 -0.0945 0-0.00532 1.4e-4 -0.02665-4e-4 -0.0315 0-0.0027-9e-5 -0.02859 2.5e-4 -0.03149 0-0.00373 0.0012-0.02766-0.00141-0.0315 0zm52.224 13.04c0.77786-0.08251 1.7888 0.18738 2.7718 0.75595 1.4228 0.82293 2.2857 2.0577 2.1734 2.9608-0.00356 0.02447 0.00505 0.07055 0 0.0945-0.00555 0.02377-0.02443 0.07127-0.0315 0.09449-0.00757 0.02303-0.02239 0.07206-0.0315 0.0945-0.00642 0.01482-0.02438 0.04845-0.0315 0.06299-0.00745 0.0144-0.02333 0.04889-0.03149 0.063-0.04656 0.07633-0.12507 0.15811-0.18899 0.22048-0.68395 0.63877-2.2608 0.54536-3.7483-0.31498-1.4098-0.81545-2.2983-2.0601-2.2049-2.9608 0.00307-0.02463 0.02696-0.07036 0.0315-0.09449 0.02356-0.11178 0.06886-0.21622 0.12599-0.31498 0.0204-0.03528 0.03888-0.09361 0.063-0.126 0.00497-0.00636 0.02639-0.02525 0.0315-0.03149 0.04204-0.04905 0.10671-0.11583 0.15749-0.15749 0.22672-0.17829 0.55521-0.30848 0.91344-0.34648zm-33.23 30.175c0.11777-0.0083 0.22434 7.2e-4 0.34648 0 0.02051-1.2e-4 0.04235-9e-5 0.063 0 3.9793 1.0815 9.838 1.1758 14.93 1.7009 4.1477 0.26307 6.2154 3.5174 2.3308 4.8822-3.8322 1.3124-7.5109 2.3369-7.528 7.8745 0.50376 2.7431 0.39681 4.1895-0.03149 4.8507-0.03351 0.04956-0.08877 0.11676-0.126 0.15749-0.00539 0.00564-0.02603 0.02603-0.03149 0.0315-0.00554 0.0053-0.0259 0.02637-0.0315 0.0315-0.00568 0.00496-0.02576 0.0267-0.0315 0.03149-0.00553 0.00565-0.02594 0.0259-0.0315 0.0315-0.01103 0.00547-0.0519 0.02619-0.06299 0.0315-0.0557 0.03462-0.1283 0.07222-0.18899 0.09449-0.05361 0.01821-0.13199 0.02191-0.18899 0.0315-0.91096 0.13361-2.2281-0.74503-3.2128-1.2599-2.3626-1.6964-9.0089-5.7956-9.9534-14.615-0.13438-1.9902 1.3536-3.7056 3.7483-3.8742z" fill="#fff" fill-rule="evenodd"/>
 <path d="m234.03 132.3c4.1134 1.9614 11.846 1.1269 11.52-5.5054 0-0.58662-0.14918-2.5712-0.20764-3.1085-0.83961-1.9554-3.1306-1.4726-3.6497 0.5463-0.16329 0.66121 0.29129 1.7377-0.30743 2.0703-0.3437 0.34673-1.658 0.14312-1.6036-1.6893 0-0.58359-0.43039-1.2115-0.68943-1.5814-0.26005-0.17034-0.42535-0.21771-0.89606-0.21771-0.57351 0.02318-0.56444 0.17235-0.87892 0.65415-0.13304 0.49086-0.3175 0.97064-0.3175 1.527-0.07156 0.65214-0.3175 0.88497-0.79727 0.98072-0.53623 0-0.41527 0.05947-0.8497-0.21771-0.25803-0.28222-0.58057-0.39007-0.58057-0.87187 0-0.49892-0.11289-1.3063-0.26307-1.6359-0.22779-0.30036-0.59367-0.43946-1.0059-0.54529-2.2467 0.00806-2.4019 2.5702-2.2729 3.5429-0.16832 0.18344-0.26408 4.7796 2.8 6.0516z" fill="#fff" fill-rule="evenodd"/>
 <path d="m354.6 183.33c4.1134 1.9614 13.904 0.83255 11.52-5.5054 0-0.58662-0.14917-2.5712-0.20763-3.1085-0.83961-1.9554-3.1306-1.4726-3.6497 0.5463-0.16328 0.66121 0.29129 1.7377-0.30742 2.0703-0.34371 0.34673-1.6581 0.14313-1.6036-1.6893 0-0.58359-0.43039-1.2115-0.68943-1.5814-0.26004-0.17034-0.42534-0.21772-0.89605-0.21772-0.57352 0.02319-0.56445 0.17236-0.87892 0.65416-0.13305 0.49086-0.3175 0.97064-0.3175 1.527-0.07156 0.65213-0.3175 0.88497-0.79728 0.98072-0.53622 0-0.41527 0.05947-0.84969-0.21771-0.25803-0.28222-0.58057-0.39007-0.58057-0.87187 0-0.49893-0.11289-1.3063-0.26307-1.6359-0.2278-0.30036-0.59368-0.43946-1.0059-0.54529-2.2467 0.00806-2.4019 2.5702-2.2729 3.5429-0.16833 0.18345-0.26408 4.7796 2.8 6.0517z" fill="#fff" fill-rule="evenodd"/>
 <path d="m424.91 162.21c4.1134 1.9614 11.846 1.1269 11.52-5.5054 0-0.58662-0.14917-2.5712-0.20763-3.1085-0.83961-1.9554-3.1306-1.4726-3.6497 0.54631-0.16329 0.6612 0.29129 1.7377-0.30742 2.0703-0.34371 0.34673-1.6581 0.14312-1.6036-1.6893 0-0.5836-0.43039-1.2115-0.68943-1.5815-0.26004-0.17034-0.42534-0.21771-0.89605-0.21771-0.57352 0.02318-0.56445 0.17236-0.87892 0.65415-0.13305 0.49087-0.3175 0.97064-0.3175 1.527-0.07157 0.65214-0.3175 0.88497-0.79728 0.98073-0.53622 0-0.41527 0.05946-0.84969-0.21772-0.25803-0.28222-0.58057-0.39007-0.58057-0.87186 0-0.49893-0.11289-1.3063-0.26307-1.6359-0.2278-0.30037-0.59368-0.43946-1.0059-0.5453-2.2467 0.00807-2.4019 2.5702-2.2729 3.5429-0.16833 0.18344-0.26408 4.7796 2.8 6.0516z" fill="#fff" fill-rule="evenodd"/>
 <path d="m461.33 215.26c-7.1684 8.0786-4.0076 21.441-2.3888 24.319 2.3636 4.7282 4.2666 7.7611 8.8658 10.1 4.189 3.0833 7.4527 1.1561 9.2518-1.0029 4.2152-4.3684 4.2656-15.521 6.2442-17.732 1.3879-4.06 4.8824-3.3665 6.5788-1.5673 1.644 2.3636 3.5802 3.8876 5.9952 5.1737 3.932 3.4683 8.6269 4.1023 13.252 0.94141 3.1609-1.773 5.2161-4.064 7.0666-8.6118 2.0562-5.4993 0.91017-35.43 0.49893-50.489-0.15825-1.1813-4.0862-20.708-4.0862-20.926 0-0.21872-0.51909-9.9655-0.9515-12.288-0.07559-0.94242-0.30943-1.2136 0.67835-1.0936 1.0472 0.88094 1.1904 0.93637 1.8445 1.2267 1.0573 0.19352 2.0038-1.6056 1.3658-3.2617-3.2708-6.0325-6.5415-12.066-9.8123-18.099-0.7872-0.77511-1.8042-1.6268-3.053 0.21872-1.1934 1.0462-2.4644 2.9402-2.4251 5.3743 0.29028 4.2888 1.0442 8.6531 1.3345 12.942 1.3083 7.3408 2.6176 14.683 3.9259 22.023 1.2357 15.7 1.5452 30.048 2.7809 45.747-0.17336 6.6473-2.2396 15.467-4.1779 16.303 0 0-2.9492 1.7095-4.9268-0.1784-1.4383-0.57755-7.1957-9.5946-7.1957-9.5946-2.9432-2.6982-4.8834-1.9272-6.9779 0-5.7755 5.5769-8.3891 16.01-12.314 23.206-1.012 1.6056-3.8725 2.9805-7.0414-0.11692-8.0484-10.996-3.3312-26.639-4.3331-22.616z" fill="#fff" fill-rule="evenodd"/>
 <path d="m426.76 123.7c3.685 1.5421 6.2845 9.0069 5.4368 12.652-0.73378 4.5085-2.6882 9.3778-4.0932 8.7438-1.527-0.56646 1.0412-4.4813-0.42636-8.5896-0.81542-2.674-5.844-7.5595-5.3148-8.9999-1.0382-3.0178 2.1378-4.3382 4.3976-3.806z" fill="#fff" fill-rule="evenodd"/>
 <path d="m473.19 219.69c0.7751-8.9636-0.5332-14.43-0.76604-19.698-0.23182-5.2685-5.9589-47.988-7.1201-51.974-1.401-7.5374 5.5668-1.011 4.8058-5.3945-2.411-5.5265-8.4102-13.574-10.294-18.375-1.1329-2.0572-0.65718-3.8866-3.1942-0.54126-2.3525 7.6916-3.169 13.978-2.2709 18.755 6.0426 31.534 12.239 60.274 11.256 90.292 2.8656 0.01915 6.1686-6.5566 7.5837-13.064z" fill="#fff" fill-rule="evenodd"/>
 <path d="m536.15 134.39c3.3594 1.6702 5.3269 11.025 4.956 13.697-0.66826 4.8814-2.4503 10.153-3.7314 9.4665-1.392-0.61283 0.2792-7.239-0.38906-9.2992-0.74285-2.8948-5.327-8.1844-4.8452-9.7437-0.94646-3.2667 1.9493-4.696 4.0096-4.1204z" fill="#fff" fill-rule="evenodd"/>
 <path d="m286.48 202.74c3.2133 1.2267 5.0971 8.1008 4.7424 10.065-0.64105 3.5862-2.3465 7.4597-3.5701 6.9558-1.3325-0.45055 0.26711-5.3199-0.37293-6.8338-0.27114-3.6719-4.7313-5.5729-4.6375-7.1594-0.83255-2.916 1.8657-3.4522 3.8382-3.0278z" fill="#fff" fill-rule="evenodd"/>
 <path d="m200.59 121.47c4.7413 1.4293 5.0215 8.3981 4.6718 10.435-0.63198 3.7183-2.3112 7.7339-3.5177 7.2108-1.3123-0.46668-0.0514-5.5144-0.68136-7.0848-0.70254-2.2054-4.7091-6.2341-4.2545-7.4214-0.89203-2.4896 1.8385-3.5792 3.7818-3.1397z" fill="#fff" fill-rule="evenodd"/>
 <path d="m294.22 154.33c-3.6376 1.9675-5.0488 7.8327-2.7839 11.248 2.1157 3.0077 5.457 1.8929 5.9025 1.8929 3.5641 0.4455 5.6787-6.6816 5.6787-6.6816s0.11188-2.0038-4.1204 1.783c-1.781 0.33363-2.0038-0.33463-2.4493-1.3375-0.37092-1.8556-0.29734-3.7112 0.55638-5.5678 0.63097-1.781-0.74285-2.5612-2.7839-1.3365z" fill="#fff" fill-rule="evenodd"/>
 <path d="m321.5 118.78c-1.8284 1.2256-5.467 4.9953-5.5779 9.3385-0.11088 2.4503-0.56747 2.4432 1.0372 4.0025 1.1591 1.6712 2.3283 1.521 4.6678 0.29533 1.3436-0.98979 1.7982-1.647 2.2507-3.307 0.55739-2.7839-2.9432 1.3204-3.3887-1.778-0.77914-2.8766 1.4686-4.0539 3.5842-6.8378 0.07055-1.907 0.02923-3.2576-2.5733-1.7135z" fill="#fff" fill-rule="evenodd"/>
 <path d="m343.49 122.69c-0.7882 1.7407-1.7326 10.833-1.5754 10.833-0.62896 2.7093 2.8353 3.8685 4.4107 0.38604 2.3616-6.3843 2.3616-9.0926 2.5198-11.801-0.7358-4.1255-3.5177-3.9965-5.3552 0.58158z" fill="#fff" fill-rule="evenodd"/>
 <path d="m482.08 193.21c0.47272-0.47273 19.53-14.016 19.53-14.016 1.9423-0.68237 1.522 6.982 0.62996 6.9296 0.36689 1.522-18.794 14.542-20.16 14.016-0.94443 0.68237-1.8899-5.2493 0-6.9296z" fill="#fff" fill-rule="evenodd"/>
 <path d="m499.46 193.1c3.3594 1.6702 4.697 11.498 4.3261 14.17 0.11893 5.1969-3.2375 9.3658-4.5186 8.6793-1.392-0.61282 0.12196-6.4518-0.54631-8.512-0.74284-2.8948-3.5953-8.3417-3.1135-9.901-0.94645-3.2667 1.7921-5.0115 3.8523-4.4359z" fill="#fff" fill-rule="evenodd"/>
 <path d="m386.1 235.42c1.3254-1.9372 5.4197-4.7252 5.5124-4.7252 1.8889-0.94545 3.7344 0.74083 3.6225 0.62996 0.31447 1.8899-1.1954 3.6487-0.72269 6.1696 0.41325 1.016 0.71563 2.1439 2.5773 1.7135 3.0258-2.3808 5.8289-2.534 8.8547-2.6862 2.3193 0.1401 2.411 4.066 0.94444 4.0952-5.587 1.2146-8.0907 2.7103-12.08 4.2333-1.8899 1.1017-3.5116-0.29633-3.5116-0.45357s-1.1057-1.0724-0.33363-3.5762c0.13708-2.0078-0.67128-3.1085-2.3434-2.8807-1.2599 0.68136-2.3697 1.1329-2.9996-0.31549-0.24795-1.0694-0.32859-1.5895 0.47978-2.2044z" fill="#fff" fill-rule="evenodd"/>
 <path d="m519.51 240.71c0.81643 1.0392 1.3446 2.0008-0.06552 3.7082-1.3365 1.2246-2.2779 1.899-3.6145 3.1236-0.63097 1.0765-1.0341 2.7093 0.89606 3.2294 3.5641 1.0019 11.805-4.3432 11.805-4.4551 1.3365-1.0019 0.89101-2.8948 0.77913-2.8948-0.77913-0.89102-2.535-0.36185-3.7163-0.50599-0.56243 0-2.407-0.27919-1.529-1.912 0.73277-1.016 0.99484-1.6379 1.4918-2.8898 0.55638-1.2246 0.07862-2.0421-1.9262-2.7104-2.0421-0.37092-2.8575-0.18546-5.1223 0-1.2246 0.26005-1.6429 0.80736-1.8657 2.292 0.08769 2.2517 1.4575 2.1237 2.8676 3.0147z" fill="#fff" fill-rule="evenodd"/>
</svg>
